<svg width="517" height="345" viewBox="0 0 517 345" fill="none" xmlns="http://www.w3.org/2000/svg">
<g clip-path="url(#clip0_2_2)">
<path d="M0 0H517V344.667H0V0Z" fill="white"/>
<path d="M0 0H517V91.9111H0V0ZM0 252.756H517V344.667H0V252.756Z" fill="#D03433"/>
<path d="M0 91.9111H517V252.756H0V91.9111Z" fill="#FBCA46"/>
<path d="M179.227 160.844H202.204V172.333H179.227V160.844Z" fill="white"/>
<path d="M165.44 195.311C165.44 202.204 172.333 206.8 179.227 206.8C186.12 206.8 193.013 202.204 193.013 195.311L195.311 160.844H163.142L165.44 195.311ZM151.653 160.844C151.653 153.951 156.249 149.356 160.844 149.356H195.311C202.204 149.356 206.8 153.951 206.8 158.547V160.844L204.502 195.311C202.204 209.098 193.013 218.289 179.227 218.289C165.44 218.289 156.249 209.098 153.951 195.311L151.653 160.844Z" fill="#A41517"/>
<path d="M156.249 172.333H202.204V183.822H190.716L179.227 206.8L167.738 183.822H156.249V172.333ZM121.782 137.867H144.76V218.289H121.782V137.867ZM213.693 137.867H236.671V218.289H213.693V137.867ZM156.249 126.378C156.249 119.484 160.844 114.889 167.738 114.889H190.716C197.609 114.889 202.204 119.484 202.204 126.378V130.973C202.204 135.569 199.907 137.867 195.311 137.867H160.844C158.547 137.867 156.249 135.569 156.249 133.271V126.378Z" fill="#A41517"/>
</g>
<defs>
<clipPath id="clip0_2_2">
<rect width="517" height="344.667" fill="white"/>
</clipPath>
</defs>
</svg>
